<svg width="20" height="20" viewBox="0 0 20 20" fill="none" xmlns="http://www.w3.org/2000/svg">
<g clip-path="url(#clip0)">
<path d="M10 1.79937C12.6636 1.79937 12.9824 1.79937 14.0352 1.8581C14.6687 1.86266 15.2963 1.9791 15.8893 2.20206C16.3189 2.36835 16.7091 2.62251 17.0348 2.94827C17.3606 3.27403 17.6147 3.66421 17.781 4.09384C18.004 4.68676 18.1204 5.31442 18.125 5.94787C18.1753 7.00072 18.1837 7.31951 18.1837 9.9831C18.1837 12.6467 18.1837 12.9655 18.125 14.0183C18.1204 14.6518 18.004 15.2794 17.781 15.8724C17.6147 16.302 17.3606 16.6922 17.0348 17.0179C16.7091 17.3437 16.3189 17.5978 15.8893 17.7641C15.2963 17.9871 14.6687 18.1035 14.0352 18.1081C12.9824 18.1584 12.6678 18.1668 10 18.1668C7.33221 18.1668 7.01762 18.1668 5.96477 18.1081C5.33132 18.1035 4.70366 17.9871 4.11074 17.7641C3.68111 17.5978 3.29093 17.3437 2.96517 17.0179C2.63941 16.6922 2.38525 16.302 2.21896 15.8724C1.996 15.2794 1.87956 14.6518 1.875 14.0183C1.82466 12.9655 1.81628 12.6467 1.81628 9.9831C1.81628 7.31951 1.81628 7.00072 1.875 5.94787C1.87956 5.31442 1.996 4.68676 2.21896 4.09384C2.38525 3.66421 2.63941 3.27403 2.96517 2.94827C3.29093 2.62251 3.68111 2.36835 4.11074 2.20206C4.70366 1.9791 5.33132 1.86266 5.96477 1.8581C7.01762 1.80776 7.33641 1.79937 10 1.79937ZM10 -0.00012207C7.29027 -0.00012207 6.9505 -0.00012207 5.87248 0.0586028C5.0481 0.0775465 4.23277 0.234941 3.46057 0.524207C2.79234 0.779891 2.18548 1.17352 1.67956 1.67944C1.17364 2.18536 0.780013 2.79221 0.524329 3.46045C0.235063 4.23265 0.0776685 5.04798 0.0587248 5.87236C0 6.95038 0 7.29015 0 9.99988C0 12.7096 0 13.0494 0.0587248 14.1148C0.0762588 14.9434 0.233676 15.7631 0.524329 16.5393C0.780013 17.2075 1.17364 17.8144 1.67956 18.3203C2.18548 18.8262 2.79234 19.2199 3.46057 19.4755C4.23277 19.7648 5.0481 19.9222 5.87248 19.9412C6.93792 19.9873 7.27768 19.9999 9.98742 19.9999C12.6971 19.9999 13.0369 19.9999 14.1023 19.9412C14.931 19.9236 15.7507 19.7662 16.5268 19.4755C17.1951 19.2199 17.8019 18.8262 18.3079 18.3203C18.8138 17.8144 19.2074 17.2075 19.4631 16.5393C19.7537 15.7631 19.9112 14.9434 19.9287 14.1148C19.9748 13.0494 19.9874 12.7096 19.9874 9.99988C19.9874 7.29015 19.9874 6.95038 19.9287 5.88494C19.9112 5.05632 19.7537 4.23662 19.4631 3.46045C19.2074 2.79221 18.8138 2.18536 18.3079 1.67944C17.8019 1.17352 17.1951 0.779891 16.5268 0.524207C15.7546 0.234941 14.9393 0.0775465 14.1149 0.0586028C13.0495 -0.00012207 12.7097 -0.00012207 10 -0.00012207Z" fill="#DEC7AC"/>
<path d="M9.99889 4.85352C8.98509 4.85352 7.99407 5.15414 7.15112 5.71738C6.30818 6.28061 5.65119 7.08116 5.26323 8.01778C4.87527 8.95441 4.77376 9.98504 4.97154 10.9794C5.16932 11.9737 5.65751 12.887 6.37437 13.6039C7.09123 14.3207 8.00457 14.8089 8.99889 15.0067C9.9932 15.2045 11.0238 15.103 11.9605 14.715C12.8971 14.327 13.6976 13.6701 14.2609 12.8271C14.8241 11.9842 15.1247 10.9931 15.1247 9.97935C15.1247 8.6199 14.5847 7.31612 13.6234 6.35484C12.6621 5.39356 11.3583 4.85352 9.99889 4.85352ZM9.99889 13.3057C9.341 13.3057 8.69789 13.1106 8.15087 12.7451C7.60386 12.3796 7.17751 11.8601 6.92575 11.2523C6.67399 10.6445 6.60811 9.97566 6.73646 9.33042C6.86481 8.68517 7.18161 8.09247 7.64681 7.62728C8.11201 7.16208 8.7047 6.84527 9.34995 6.71693C9.9952 6.58858 10.664 6.65445 11.2718 6.90621C11.8796 7.15798 12.3991 7.58432 12.7646 8.13134C13.1301 8.67835 13.3252 9.32147 13.3252 9.97935C13.3252 10.4162 13.2392 10.8487 13.072 11.2523C12.9049 11.6559 12.6598 12.0226 12.351 12.3314C12.0421 12.6403 11.6754 12.8853 11.2718 13.0525C10.8683 13.2197 10.4357 13.3057 9.99889 13.3057Z" fill="#DEC7AC"/>
<path d="M15.3256 5.85136C15.9882 5.85136 16.5253 5.31425 16.5253 4.65169C16.5253 3.98913 15.9882 3.45203 15.3256 3.45203C14.6631 3.45203 14.126 3.98913 14.126 4.65169C14.126 5.31425 14.6631 5.85136 15.3256 5.85136Z" fill="#DEC7AC"/>
</g>
<defs>
<clipPath id="clip0">
<rect width="20" height="20" fill="#DEC7AC" transform="translate(0 -0.00012207)"/>
</clipPath>
</defs>
</svg>
