<svg xmlns="http://www.w3.org/2000/svg" viewBox="0 0 285.17 75.86"><defs><style>.cls-1{fill:#dec7ac;}</style></defs><g id="Capa_2" data-name="Capa 2"><g id="Layer_1" data-name="Layer 1"><path class="cls-1" d="M24.72,0V51.17H70.55V54.7H70c-13.57,0-27.14,0-40.7,0a25.37,25.37,0,0,1-13.75-4.22,38.41,38.41,0,0,1-6.75-5.29A29.37,29.37,0,0,1,.61,30.23,26.89,26.89,0,0,1,0,25.09C0,16.92,0,8.74,0,.57A5.54,5.54,0,0,1,.08,0H3.49c0,.2.07.41.07.61q0,13.77,0,27.52A31.35,31.35,0,0,0,3.84,32a23.74,23.74,0,0,0,7,13.86l.31.25a1.94,1.94,0,0,0-.29-.65,25.72,25.72,0,0,1-3.78-13.2C7,21.51,7.07,10.76,7.07,0h3.49a5.44,5.44,0,0,1,0,.58V11.41c0,8.17,0,16.35.05,24.53a25.9,25.9,0,0,0,3,11.67c.06.12.11.28.21.34.73.38,1.46.74,2.3,1.16-.08-.24-.11-.33-.15-.43a28.4,28.4,0,0,1-1.88-10.19V.67c0-.22,0-.45,0-.67h3.49c0,.24,0,.48,0,.71q0,20.57,0,41.13a35.6,35.6,0,0,0,.81,7c.19.92.58,1.37,1.49,1.47a14.35,14.35,0,0,1,1.62.36c0-.17,0-.24,0-.31-.13-1.57-.36-3.15-.36-4.72q0-22.56,0-45.11c0-.2,0-.39,0-.58Z"/><path class="cls-1" d="M167.87,20.49v43h-7V12.4h.54c2.2,0,4.39,0,6.59,0a1,1,0,0,1,.78.32q7.27,7.35,14.57,14.68l10,10,12.55,12.65,5.26,5.31a1,1,0,0,0,.22.17V12.43h7V63.5l-.43,0c-2.27,0-4.54,0-6.81,0a1.08,1.08,0,0,1-.69-.3q-6.85-6.87-13.69-13.78l-8.07-8.14L174.28,26.83q-3-3-6-6a3.79,3.79,0,0,1-.31-.37Z"/><path class="cls-1" d="M283,12.42,262.15,29.81l23,33.69-.49,0h-7.57a.71.71,0,0,1-.68-.37L257.14,34.41l-.26-.35-2.8,2.32q-9.6,8-19.2,16a.85.85,0,0,0-.35.75c0,3.27,0,6.53,0,9.8v.57h-7v-51h7V45.63l1.37-1.15,31.89-27.17c1.83-1.56,3.65-3.12,5.49-4.66a1,1,0,0,1,.59-.24c2.93,0,5.85,0,8.78,0Z"/><path class="cls-1" d="M98.75,57.9h38.79v5.59H91.73V12.43h7Z"/><path class="cls-1" d="M151.64,63.49h-7V12.43h7Z"/><path class="cls-1" d="M70.54,58.21v3.53l-.48,0c-12.13,0-24.27,0-36.41,0a23,23,0,0,1-12.18-3.18,26.4,26.4,0,0,1-6.73-6.18l.3.2a26.19,26.19,0,0,0,13.63,5.49,23.12,23.12,0,0,0,2.5.12H70.54Z"/><path class="cls-1" d="M19.32,59.54c1.31.8,2.68,1.74,4.15,2.51a27.3,27.3,0,0,0,10.18,3c1.26.12,2.53.17,3.8.17H70.53V68.8H70c-10.55,0-21.11,0-31.66,0a23.2,23.2,0,0,1-12.12-3.08A27.65,27.65,0,0,1,19.32,59.54Z"/><path class="cls-1" d="M24.33,66.67c1.45.87,2.92,1.88,4.49,2.69a26.54,26.54,0,0,0,11.52,2.93c1.9,0,3.79,0,5.69,0H70.54v3.52h-.49c-8.84,0-17.68,0-26.52,0a23.83,23.83,0,0,1-12.76-3.4,27.34,27.34,0,0,1-6.41-5.73S24.3,66.62,24.33,66.67Z"/></g></g></svg>