<svg width="20" height="21" viewBox="0 0 20 21" fill="none" xmlns="http://www.w3.org/2000/svg">
<path d="M0.327517 6.63843H4.47187V19.9997H0.327517V6.63843ZM2.40179 -0.00012207C2.87682 -0.00012207 3.34118 0.141098 3.73616 0.405681C4.13113 0.670264 4.43897 1.04633 4.62076 1.48631C4.80255 1.9263 4.85011 2.41044 4.75744 2.87753C4.66476 3.34461 4.43601 3.77366 4.10012 4.11041C3.76422 4.44716 3.33626 4.67649 2.87036 4.7694C2.40446 4.86231 1.92154 4.81462 1.48267 4.63238C1.0438 4.45013 0.668687 4.1415 0.404775 3.74553C0.140863 3.34955 0 2.88401 0 2.40777H0C0 1.76916 0.253045 1.1567 0.703469 0.705134C1.15389 0.253566 1.7648 -0.00012207 2.40179 -0.00012207" fill="#DEC7AC"/>
<path d="M7.07129 6.64075H11.0393V8.46773H11.1149C11.5126 7.78728 12.087 7.22781 12.777 6.84897C13.4669 6.47013 14.2465 6.28613 15.0325 6.31661C19.2315 6.31661 19.9999 9.08234 19.9999 12.6774V20.0021H15.8597V13.5067C15.8597 11.9575 15.8345 9.96215 13.7099 9.96215C11.5852 9.96215 11.2241 11.646 11.2241 13.393V20.0021H7.08808L7.07129 6.64075Z" fill="#DEC7AC"/>
</svg>
