<svg width="24" height="20" viewBox="0 0 24 20" fill="none" xmlns="http://www.w3.org/2000/svg">
<path fill-rule="evenodd" clip-rule="evenodd" d="M24 2.39988C23.1 2.79988 22.15 3.04988 21.15 3.19988C22.15 2.59988 22.95 1.59988 23.3 0.399878C22.35 0.999878 21.3 1.39988 20.15 1.59988C19.25 0.599878 17.95 -0.00012207 16.55 -0.00012207C13.85 -0.00012207 11.65 2.24988 11.65 5.04988C11.65 5.44988 11.7 5.84988 11.8 6.19988C7.7 5.99988 4.1 3.99988 1.65 0.899878C1.25 1.64988 1 2.49988 1 3.44988C1 5.19988 1.85 6.74988 3.2 7.64988C2.4 7.64988 1.65 7.39988 0.95 6.99988V7.04988C0.95 9.49988 2.65 11.5499 4.9 11.9999C4.5 12.0999 4.05 12.1999 3.6 12.1999C3.3 12.1999 2.95 12.1499 2.65 12.0999C3.3 14.0999 5.1 15.5499 7.25 15.5999C5.55 16.9499 3.45 17.7499 1.15 17.7499C0.75 17.7499 0.35 17.7499 0 17.6999C2.2 19.1499 4.75 19.9499 7.55 19.9499C16.6 19.9499 21.55 12.2499 21.55 5.59988C21.55 5.39988 21.55 5.14988 21.55 4.94988C22.5 4.29988 23.35 3.44988 24 2.39988Z" fill="#DEC7AC"/>
</svg>
