<svg width="22" height="15" viewBox="0 0 22 15" fill="none" xmlns="http://www.w3.org/2000/svg">
<g clip-path="url(#clip0)">
<path d="M20.9824 2.34694C20.7353 1.42929 20.0118 0.70576 19.0941 0.458701C17.4176 -0.00012207 10.7118 -0.00012207 10.7118 -0.00012207C10.7118 -0.00012207 4.00588 -0.00012207 2.32941 0.441054C1.42941 0.688113 0.688235 1.42929 0.441176 2.34694C0 4.02341 0 7.49988 0 7.49988C0 7.49988 0 10.994 0.441176 12.6528C0.688235 13.5705 1.41176 14.294 2.32941 14.5411C4.02353 14.9999 10.7118 14.9999 10.7118 14.9999C10.7118 14.9999 17.4176 14.9999 19.0941 14.5587C20.0118 14.3116 20.7353 13.5881 20.9824 12.6705C21.4235 10.994 21.4235 7.51752 21.4235 7.51752C21.4235 7.51752 21.4412 4.02341 20.9824 2.34694ZM8.57647 10.7116V4.28811L14.1529 7.49988L8.57647 10.7116Z" fill="#DEC7AC"/>
</g>
<defs>
<clipPath id="clip0">
<rect width="21.4412" height="15" fill="#DEC7AC" transform="translate(0 -0.00012207)"/>
</clipPath>
</defs>
</svg>
